<?xml version="1.0" encoding="utf-8"?>
<!-- Generator: Adobe Illustrator 15.1.0, SVG Export Plug-In . SVG Version: 6.00 Build 0)  -->
<!DOCTYPE svg PUBLIC "-//W3C//DTD SVG 1.1//EN" "http://www.w3.org/Graphics/SVG/1.1/DTD/svg11.dtd">
<svg version="1.1" id="Layer_1" xmlns="http://www.w3.org/2000/svg" xmlns:xlink="http://www.w3.org/1999/xlink" x="0px" y="0px"
	 width="824px" height="191.5px" viewBox="0 0 824 191.5" enable-background="new 0 0 824 191.5" xml:space="preserve">
<g>
	<g>
		<rect y="126" fill="#EDEDED" width="138" height="5"/>
		<rect y="146" fill="#EDEDED" width="138" height="6"/>
		<rect y="165" fill="#EDEDED" width="138" height="7"/>
		<rect y="184" fill="#EDEDED" width="138" height="7"/>
		<rect y="47" fill="#EDEDED" width="138" height="69"/>
	</g>
	<g>
		<rect x="171" y="126" fill="#EDEDED" width="139" height="5"/>
		<rect x="171" y="146" fill="#EDEDED" width="139" height="6"/>
		<rect x="171" y="165" fill="#EDEDED" width="139" height="7"/>
		<rect x="171" y="184" fill="#EDEDED" width="139" height="7"/>
		<rect x="171" y="47" fill="#EDEDED" width="139" height="69"/>
	</g>
	<g>
		<rect x="343" y="126" fill="#EDEDED" width="138" height="6"/>
		<rect x="343" y="147" fill="#EDEDED" width="138" height="5"/>
		<rect x="343" y="166" fill="#EDEDED" width="138" height="7"/>
		<rect x="343" y="185" fill="#EDEDED" width="138" height="7"/>
		<rect x="343" y="47" fill="#EDEDED" width="138" height="70"/>
	</g>
	<g>
		<rect x="514" y="126" fill="#EDEDED" width="139" height="5"/>
		<rect x="514" y="146" fill="#EDEDED" width="139" height="5"/>
		<rect x="514" y="165" fill="#EDEDED" width="139" height="7"/>
		<rect x="514" y="184" fill="#EDEDED" width="139" height="7"/>
		<rect x="514" y="47" fill="#EDEDED" width="139" height="69"/>
	</g>
	<g>
		<rect x="686" y="126" fill="#EDEDED" width="138" height="5"/>
		<rect x="686" y="146" fill="#EDEDED" width="138" height="6"/>
		<rect x="686" y="165" fill="#EDEDED" width="138" height="7"/>
		<rect x="686" y="184" fill="#EDEDED" width="138" height="7"/>
		<rect x="686" y="47" fill="#EDEDED" width="138" height="69"/>
	</g>
</g>
<rect x="745" y="18" fill="#EDEDED" width="72" height="8"/>
<rect x="650" y="18" fill="#EDEDED" width="72" height="8"/>
<rect x="555" y="18" fill="#EDEDED" width="72" height="8"/>
<rect x="460" y="18" fill="#EDEDED" width="72" height="8"/>
</svg>
