<?xml version="1.0" encoding="utf-8"?>
<!-- Generator: Adobe Illustrator 15.1.0, SVG Export Plug-In . SVG Version: 6.00 Build 0)  -->
<!DOCTYPE svg PUBLIC "-//W3C//DTD SVG 1.1//EN" "http://www.w3.org/Graphics/SVG/1.1/DTD/svg11.dtd">
<svg version="1.1" id="Layer_1" xmlns="http://www.w3.org/2000/svg" xmlns:xlink="http://www.w3.org/1999/xlink" x="0px" y="0px"
	 width="824px" height="145px" viewBox="0 0 824 145" enable-background="new 0 0 824 145" xml:space="preserve">
<g>
	<g>
		<rect y="79" fill="#EDEDED" width="138" height="5"/>
		<rect y="99" fill="#EDEDED" width="138" height="6"/>
		<rect y="118" fill="#EDEDED" width="138" height="7"/>
		<rect y="137" fill="#EDEDED" width="138" height="7"/>
		<rect fill="#EDEDED" width="138" height="69"/>
	</g>
	<g>
		<rect x="171" y="79" fill="#EDEDED" width="139" height="5"/>
		<rect x="171" y="99" fill="#EDEDED" width="139" height="6"/>
		<rect x="171" y="118" fill="#EDEDED" width="139" height="7"/>
		<rect x="171" y="137" fill="#EDEDED" width="139" height="7"/>
		<rect x="171" fill="#EDEDED" width="139" height="69"/>
	</g>
	<g>
		<rect x="343" y="79" fill="#EDEDED" width="138" height="6"/>
		<rect x="343" y="100" fill="#EDEDED" width="138" height="5"/>
		<rect x="343" y="119" fill="#EDEDED" width="138" height="7"/>
		<rect x="343" y="138" fill="#EDEDED" width="138" height="7"/>
		<rect x="343" fill="#EDEDED" width="138" height="70"/>
	</g>
	<g>
		<rect x="514" y="79" fill="#EDEDED" width="139" height="5"/>
		<rect x="514" y="99" fill="#EDEDED" width="139" height="5"/>
		<rect x="514" y="118" fill="#EDEDED" width="139" height="7"/>
		<rect x="514" y="137" fill="#EDEDED" width="139" height="7"/>
		<rect x="514" fill="#EDEDED" width="139" height="69"/>
	</g>
	<g>
		<rect x="686" y="79" fill="#EDEDED" width="138" height="5"/>
		<rect x="686" y="99" fill="#EDEDED" width="138" height="6"/>
		<rect x="686" y="118" fill="#EDEDED" width="138" height="7"/>
		<rect x="686" y="137" fill="#EDEDED" width="138" height="7"/>
		<rect x="686" fill="#EDEDED" width="138" height="69"/>
	</g>
</g>
</svg>
