<?xml version="1.0" encoding="utf-8"?>
<!-- Generator: Adobe Illustrator 15.1.0, SVG Export Plug-In . SVG Version: 6.00 Build 0)  -->
<!DOCTYPE svg PUBLIC "-//W3C//DTD SVG 1.1//EN" "http://www.w3.org/Graphics/SVG/1.1/DTD/svg11.dtd">
<svg version="1.1" id="Layer_1" xmlns="http://www.w3.org/2000/svg" xmlns:xlink="http://www.w3.org/1999/xlink" x="0px" y="0px"
	 width="824px" height="366px" viewBox="0 0 824 366" enable-background="new 0 0 824 366" xml:space="preserve">
<g>
	<rect fill="#EDEDED" width="239" height="185"/>
	<rect x="581" fill="#EDEDED" width="239" height="185"/>
	<rect x="260" y="10" fill="#EDEDED" width="260" height="8"/>
	<rect x="260" y="36" fill="#EDEDED" width="260" height="8"/>
	<rect x="260" y="62" fill="#EDEDED" width="260" height="8"/>
	<rect x="260" y="87" fill="#EDEDED" width="260" height="8"/>
	<rect x="260" y="113" fill="#EDEDED" width="260" height="8"/>
	<rect x="260" y="138" fill="#EDEDED" width="260" height="8"/>
	<g>
		<rect y="301" fill="#EDEDED" width="138" height="5"/>
		<rect y="321" fill="#EDEDED" width="138" height="6"/>
		<rect y="340" fill="#EDEDED" width="138" height="7"/>
		<rect y="359" fill="#EDEDED" width="138" height="7"/>
		<rect y="222" fill="#EDEDED" width="138" height="69"/>
	</g>
	<g>
		<rect x="171" y="298" fill="#EDEDED" width="139" height="5"/>
		<rect x="171" y="318" fill="#EDEDED" width="139" height="6"/>
		<rect x="171" y="337" fill="#EDEDED" width="139" height="7"/>
		<rect x="171" y="356" fill="#EDEDED" width="139" height="7"/>
		<rect x="171" y="219" fill="#EDEDED" width="139" height="69"/>
	</g>
	<g>
		<rect x="343" y="295" fill="#EDEDED" width="138" height="6"/>
		<rect x="343" y="316" fill="#EDEDED" width="138" height="5"/>
		<rect x="343" y="335" fill="#EDEDED" width="138" height="7"/>
		<rect x="343" y="354" fill="#EDEDED" width="138" height="7"/>
		<rect x="343" y="216" fill="#EDEDED" width="138" height="70"/>
	</g>
	<g>
		<rect x="514" y="293" fill="#EDEDED" width="139" height="5"/>
		<rect x="514" y="313" fill="#EDEDED" width="139" height="5"/>
		<rect x="514" y="332" fill="#EDEDED" width="139" height="7"/>
		<rect x="514" y="351" fill="#EDEDED" width="139" height="7"/>
		<rect x="514" y="214" fill="#EDEDED" width="139" height="69"/>
	</g>
	<g>
		<rect x="686" y="290" fill="#EDEDED" width="138" height="5"/>
		<rect x="686" y="310" fill="#EDEDED" width="138" height="6"/>
		<rect x="686" y="329" fill="#EDEDED" width="138" height="7"/>
		<rect x="686" y="348" fill="#EDEDED" width="138" height="7"/>
		<rect x="686" y="211" fill="#EDEDED" width="138" height="69"/>
	</g>
	<text transform="matrix(1 0 0 1 662.2607 112.313)" fill="#CCCCCC" font-family="'MyriadPro-Regular'" font-size="66.1186">Ad</text>
</g>
</svg>
