<?xml version="1.0" encoding="utf-8"?>
<!-- Generator: Adobe Illustrator 15.1.0, SVG Export Plug-In . SVG Version: 6.00 Build 0)  -->
<!DOCTYPE svg PUBLIC "-//W3C//DTD SVG 1.1//EN" "http://www.w3.org/Graphics/SVG/1.1/DTD/svg11.dtd">
<svg version="1.1" id="Layer_1" xmlns="http://www.w3.org/2000/svg" xmlns:xlink="http://www.w3.org/1999/xlink" x="0px" y="0px"
	 width="824px" height="352px" viewBox="0 0 824 352" enable-background="new 0 0 824 352" xml:space="preserve">
<g>
	<g>
		<g>
			<rect y="286" fill="#EDEDED" width="138" height="5"/>
			<rect y="306" fill="#EDEDED" width="138" height="6"/>
			<rect y="325" fill="#EDEDED" width="138" height="7"/>
			<rect y="344" fill="#EDEDED" width="138" height="7"/>
			<rect y="207" fill="#EDEDED" width="138" height="69"/>
		</g>
		<g>
			<rect x="171" y="286" fill="#EDEDED" width="139" height="5"/>
			<rect x="171" y="306" fill="#EDEDED" width="139" height="6"/>
			<rect x="171" y="325" fill="#EDEDED" width="139" height="7"/>
			<rect x="171" y="344" fill="#EDEDED" width="139" height="7"/>
			<rect x="171" y="207" fill="#EDEDED" width="139" height="69"/>
		</g>
		<g>
			<rect x="343" y="286" fill="#EDEDED" width="138" height="6"/>
			<rect x="343" y="307" fill="#EDEDED" width="138" height="5"/>
			<rect x="343" y="326" fill="#EDEDED" width="138" height="7"/>
			<rect x="343" y="345" fill="#EDEDED" width="138" height="7"/>
			<rect x="343" y="207" fill="#EDEDED" width="138" height="70"/>
		</g>
		<g>
			<rect x="514" y="286" fill="#EDEDED" width="139" height="5"/>
			<rect x="514" y="306" fill="#EDEDED" width="139" height="5"/>
			<rect x="514" y="325" fill="#EDEDED" width="139" height="7"/>
			<rect x="514" y="344" fill="#EDEDED" width="139" height="7"/>
			<rect x="514" y="207" fill="#EDEDED" width="139" height="69"/>
		</g>
		<g>
			<rect x="686" y="286" fill="#EDEDED" width="138" height="5"/>
			<rect x="686" y="306" fill="#EDEDED" width="138" height="6"/>
			<rect x="686" y="325" fill="#EDEDED" width="138" height="7"/>
			<rect x="686" y="344" fill="#EDEDED" width="138" height="7"/>
			<rect x="686" y="207" fill="#EDEDED" width="138" height="69"/>
		</g>
	</g>
	<g>
		<g>
			<rect y="112" fill="#EDEDED" width="138" height="5"/>
			<rect y="132" fill="#EDEDED" width="138" height="6"/>
			<rect y="151" fill="#EDEDED" width="138" height="7"/>
			<rect y="170" fill="#EDEDED" width="138" height="7"/>
			<rect y="33" fill="#EDEDED" width="138" height="69"/>
		</g>
		<g>
			<rect x="171" y="112" fill="#EDEDED" width="139" height="5"/>
			<rect x="171" y="132" fill="#EDEDED" width="139" height="6"/>
			<rect x="171" y="151" fill="#EDEDED" width="139" height="7"/>
			<rect x="171" y="170" fill="#EDEDED" width="139" height="7"/>
			<rect x="171" y="33" fill="#EDEDED" width="139" height="69"/>
		</g>
		<g>
			<rect x="343" y="112" fill="#EDEDED" width="138" height="6"/>
			<rect x="343" y="133" fill="#EDEDED" width="138" height="5"/>
			<rect x="343" y="152" fill="#EDEDED" width="138" height="7"/>
			<rect x="343" y="171" fill="#EDEDED" width="138" height="7"/>
			<rect x="343" y="33" fill="#EDEDED" width="138" height="70"/>
		</g>
		<g>
			<rect x="514" y="112" fill="#EDEDED" width="139" height="5"/>
			<rect x="514" y="132" fill="#EDEDED" width="139" height="5"/>
			<rect x="514" y="151" fill="#EDEDED" width="139" height="7"/>
			<rect x="514" y="170" fill="#EDEDED" width="139" height="7"/>
			<rect x="514" y="33" fill="#EDEDED" width="139" height="69"/>
		</g>
		<g>
			<rect x="686" y="112" fill="#EDEDED" width="138" height="5"/>
			<rect x="686" y="132" fill="#EDEDED" width="138" height="6"/>
			<rect x="686" y="151" fill="#EDEDED" width="138" height="7"/>
			<rect x="686" y="170" fill="#EDEDED" width="138" height="7"/>
			<rect x="686" y="33" fill="#EDEDED" width="138" height="69"/>
		</g>
	</g>
	<rect x="6" fill="#EDEDED" width="63" height="11"/>
	<rect fill="#EDEDED" width="63" height="11"/>
	<rect x="98" fill="#EDEDED" width="63" height="11"/>
	<rect x="196" fill="#EDEDED" width="63" height="11"/>
	<rect x="294" fill="#EDEDED" width="63" height="11"/>
	<rect x="392" fill="#EDEDED" width="63" height="11"/>
	<rect x="490" fill="#EDEDED" width="63" height="11"/>
	<rect x="588" fill="#EDEDED" width="63" height="11"/>
	<rect x="686" fill="#EDEDED" width="63" height="11"/>
</g>
</svg>
