<?xml version="1.0" encoding="utf-8"?>
<!-- Generator: Adobe Illustrator 15.1.0, SVG Export Plug-In . SVG Version: 6.00 Build 0)  -->
<!DOCTYPE svg PUBLIC "-//W3C//DTD SVG 1.1//EN" "http://www.w3.org/Graphics/SVG/1.1/DTD/svg11.dtd">
<svg version="1.1" id="Layer_1" xmlns="http://www.w3.org/2000/svg" xmlns:xlink="http://www.w3.org/1999/xlink" x="0px" y="0px"
	 width="824px" height="145px" viewBox="0 0 824 145" enable-background="new 0 0 824 145" xml:space="preserve">
<g>
	<g>
		<rect y="79" fill="#EDEDED" width="181" height="5"/>
		<rect y="99" fill="#EDEDED" width="181" height="6"/>
		<rect x="72" y="24" fill="#EDEDED" width="109" height="3"/>
		<rect x="72" y="38" fill="#EDEDED" width="109" height="4"/>
		<rect y="118" fill="#EDEDED" width="181" height="7"/>
		<rect y="137" fill="#EDEDED" width="181" height="7"/>
		<circle fill="#EDEDED" cx="33" cy="35" r="21.667"/>
	</g>
	<g>
		<rect x="215" y="79" fill="#EDEDED" width="181" height="5"/>
		<rect x="215" y="99" fill="#EDEDED" width="181" height="6"/>
		<rect x="287" y="24" fill="#EDEDED" width="109" height="3"/>
		<rect x="287" y="38" fill="#EDEDED" width="109" height="4"/>
		<rect x="215" y="118" fill="#EDEDED" width="181" height="7"/>
		<rect x="215" y="137" fill="#EDEDED" width="181" height="7"/>
		<circle fill="#EDEDED" cx="247.667" cy="35" r="21.667"/>
	</g>
	<g>
		<rect x="429" y="79" fill="#EDEDED" width="181" height="5"/>
		<rect x="429" y="99" fill="#EDEDED" width="181" height="6"/>
		<rect x="501" y="24" fill="#EDEDED" width="109" height="3"/>
		<rect x="501" y="38" fill="#EDEDED" width="109" height="4"/>
		<rect x="429" y="118" fill="#EDEDED" width="181" height="7"/>
		<rect x="429" y="137" fill="#EDEDED" width="181" height="7"/>
		<circle fill="#EDEDED" cx="462.333" cy="35" r="21.666"/>
	</g>
	<g>
		<rect x="644" y="79" fill="#EDEDED" width="181" height="5"/>
		<rect x="644" y="99" fill="#EDEDED" width="181" height="6"/>
		<rect x="716" y="24" fill="#EDEDED" width="109" height="3"/>
		<rect x="716" y="38" fill="#EDEDED" width="109" height="4"/>
		<rect x="644" y="118" fill="#EDEDED" width="181" height="7"/>
		<rect x="644" y="137" fill="#EDEDED" width="181" height="7"/>
		<circle fill="#EDEDED" cx="677" cy="35" r="21.666"/>
	</g>
</g>
<path fill="#EDEDED" d="M255,166"/>
</svg>
