<?xml version="1.0" encoding="utf-8"?>
<!-- Generator: Adobe Illustrator 15.1.0, SVG Export Plug-In . SVG Version: 6.00 Build 0)  -->
<!DOCTYPE svg PUBLIC "-//W3C//DTD SVG 1.1//EN" "http://www.w3.org/Graphics/SVG/1.1/DTD/svg11.dtd">
<svg version="1.1" id="Layer_1" xmlns="http://www.w3.org/2000/svg" xmlns:xlink="http://www.w3.org/1999/xlink" x="0px" y="0px"
	 width="820px" height="600px" viewBox="0 0 820 600" enable-background="new 0 0 820 600" xml:space="preserve">
<g>
	<rect fill="#EDEDED" width="239" height="139"/>
	<rect x="581" fill="#EDEDED" width="239" height="185"/>
	<rect x="260" fill="#EDEDED" width="260" height="8"/>
	<rect x="260" y="26" fill="#EDEDED" width="260" height="8"/>
	<rect x="260" y="52" fill="#EDEDED" width="260" height="8"/>
	<rect x="260" y="77" fill="#EDEDED" width="260" height="8"/>
	<rect x="260" y="103" fill="#EDEDED" width="260" height="8"/>
	<rect x="260" y="128" fill="#EDEDED" width="260" height="8"/>
	<rect y="181" fill="#EDEDED" width="260" height="8"/>
	<rect y="207" fill="#EDEDED" width="260" height="8"/>
	<rect y="233" fill="#EDEDED" width="260" height="8"/>
	<rect y="258" fill="#EDEDED" width="260" height="8"/>
	<rect x="72" y="292" fill="#EDEDED" width="188" height="4"/>
	<rect x="72" y="307" fill="#EDEDED" width="188" height="4"/>
	<rect x="72" y="321" fill="#EDEDED" width="188" height="5"/>
	<rect x="72" y="335" fill="#EDEDED" width="188" height="5"/>
	<rect x="286" y="181" fill="#EDEDED" width="260" height="8"/>
	<rect x="286" y="207" fill="#EDEDED" width="260" height="8"/>
	<rect x="286" y="233" fill="#EDEDED" width="260" height="8"/>
	<rect x="286" y="258" fill="#EDEDED" width="260" height="8"/>
	<rect y="289" fill="#EDEDED" width="59" height="51"/>
	<rect x="358" y="292" fill="#EDEDED" width="188" height="4"/>
	<rect x="358" y="307" fill="#EDEDED" width="188" height="4"/>
	<rect x="358" y="321" fill="#EDEDED" width="188" height="5"/>
	<rect x="358" y="335" fill="#EDEDED" width="188" height="5"/>
	<rect x="286" y="289" fill="#EDEDED" width="59" height="51"/>
	<rect x="72" y="385" fill="#EDEDED" width="188" height="4"/>
	<rect x="72" y="400" fill="#EDEDED" width="188" height="4"/>
	<rect x="72" y="414" fill="#EDEDED" width="188" height="5"/>
	<rect x="72" y="428" fill="#EDEDED" width="188" height="5"/>
	<rect y="382" fill="#EDEDED" width="59" height="51"/>
	<rect x="358" y="385" fill="#EDEDED" width="188" height="4"/>
	<rect x="358" y="400" fill="#EDEDED" width="188" height="4"/>
	<rect x="358" y="414" fill="#EDEDED" width="188" height="5"/>
	<rect x="358" y="428" fill="#EDEDED" width="188" height="5"/>
	<rect x="286" y="382" fill="#EDEDED" width="59" height="51"/>
	<rect x="72" y="467" fill="#EDEDED" width="188" height="4"/>
	<rect x="72" y="482" fill="#EDEDED" width="188" height="4"/>
	<rect x="72" y="496" fill="#EDEDED" width="188" height="5"/>
	<rect x="72" y="510" fill="#EDEDED" width="188" height="5"/>
	<rect y="464" fill="#EDEDED" width="59" height="51"/>
	<rect x="358" y="467" fill="#EDEDED" width="188" height="4"/>
	<rect x="358" y="482" fill="#EDEDED" width="188" height="4"/>
	<rect x="358" y="496" fill="#EDEDED" width="188" height="5"/>
	<rect x="358" y="510" fill="#EDEDED" width="188" height="5"/>
	<rect x="286" y="464" fill="#EDEDED" width="59" height="51"/>
	<rect x="72" y="552" fill="#EDEDED" width="188" height="4"/>
	<rect x="72" y="567" fill="#EDEDED" width="188" height="4"/>
	<rect x="72" y="581" fill="#EDEDED" width="188" height="5"/>
	<rect x="72" y="595" fill="#EDEDED" width="188" height="5"/>
	<rect y="549" fill="#EDEDED" width="59" height="51"/>
	<rect x="358" y="552" fill="#EDEDED" width="188" height="4"/>
	<rect x="358" y="567" fill="#EDEDED" width="188" height="4"/>
	<rect x="358" y="581" fill="#EDEDED" width="188" height="5"/>
	<rect x="358" y="595" fill="#EDEDED" width="188" height="5"/>
	<rect x="286" y="549" fill="#EDEDED" width="59" height="51"/>
	<rect x="615" y="250" fill="#EDEDED" width="188" height="4"/>
	<rect x="615" y="265" fill="#EDEDED" width="188" height="4"/>
	<rect x="615" y="279" fill="#EDEDED" width="188" height="5"/>
	<rect x="580" y="249" fill="#EDEDED" width="23" height="20"/>
	<rect x="615" y="330" fill="#EDEDED" width="188" height="4"/>
	<rect x="615" y="345" fill="#EDEDED" width="188" height="4"/>
	<rect x="615" y="359" fill="#EDEDED" width="188" height="5"/>
	<rect x="580" y="329" fill="#EDEDED" width="23" height="20"/>
	<rect x="615" y="400" fill="#EDEDED" width="188" height="4"/>
	<rect x="615" y="415" fill="#EDEDED" width="188" height="4"/>
	<rect x="615" y="429" fill="#EDEDED" width="188" height="5"/>
	<rect x="580" y="399" fill="#EDEDED" width="23" height="20"/>
	<rect x="615" y="481" fill="#EDEDED" width="188" height="4"/>
	<rect x="615" y="496" fill="#EDEDED" width="188" height="4"/>
	<rect x="615" y="510" fill="#EDEDED" width="188" height="5"/>
	<rect x="580" y="480" fill="#EDEDED" width="23" height="20"/>
	<rect x="615" y="552" fill="#EDEDED" width="188" height="4"/>
	<rect x="615" y="567" fill="#EDEDED" width="188" height="4"/>
	<rect x="615" y="581" fill="#EDEDED" width="188" height="5"/>
	<rect x="580" y="551" fill="#EDEDED" width="23" height="20"/>
	<text transform="matrix(1 0 0 1 662.2607 112.313)" fill="#CCCCCC" font-family="'MyriadPro-Regular'" font-size="66.1186">Ad</text>
</g>
</svg>
