<?xml version="1.0" encoding="utf-8"?>
<!-- Generator: Adobe Illustrator 15.1.0, SVG Export Plug-In . SVG Version: 6.00 Build 0)  -->
<!DOCTYPE svg PUBLIC "-//W3C//DTD SVG 1.1//EN" "http://www.w3.org/Graphics/SVG/1.1/DTD/svg11.dtd">
<svg version="1.1" id="Layer_1" xmlns="http://www.w3.org/2000/svg" xmlns:xlink="http://www.w3.org/1999/xlink" x="0px" y="0px"
	 width="824px" height="145px" viewBox="0 0 824 145" enable-background="new 0 0 824 145" xml:space="preserve">
<g>
	<rect y="57" fill="#EDEDED" width="138" height="5"/>
	<rect y="72" fill="#EDEDED" width="138" height="6"/>
	<rect y="88" fill="#EDEDED" width="138" height="7"/>
	<rect y="14" fill="#EDEDED" width="96" height="28"/>
	<g>
		<rect x="227" y="79" fill="#EDEDED" width="171" height="6"/>
		<rect x="227" y="100" fill="#EDEDED" width="171" height="5"/>
		<rect x="227" y="119" fill="#EDEDED" width="171" height="7"/>
		<rect x="227" y="138" fill="#EDEDED" width="171" height="7"/>
		<rect x="227" fill="#EDEDED" width="171" height="70"/>
	</g>
	<g>
		<rect x="440" y="79" fill="#EDEDED" width="171" height="5"/>
		<rect x="440" y="99" fill="#EDEDED" width="171" height="5"/>
		<rect x="440" y="118" fill="#EDEDED" width="171" height="7"/>
		<rect x="440" y="137" fill="#EDEDED" width="171" height="7"/>
		<rect x="440" fill="#EDEDED" width="171" height="69"/>
	</g>
	<g>
		<rect x="653" y="79" fill="#EDEDED" width="171" height="5"/>
		<rect x="653" y="99" fill="#EDEDED" width="171" height="6"/>
		<rect x="653" y="118" fill="#EDEDED" width="171" height="7"/>
		<rect x="653" y="137" fill="#EDEDED" width="171" height="7"/>
		<rect x="653" fill="#EDEDED" width="171" height="69"/>
	</g>
	<path fill="#EDEDED" d="M74,122c0,4.971-4.029,9-9,9H9c-4.971,0-9-4.029-9-9l0,0c0-4.971,4.029-9,9-9h56
		C69.971,113,74,117.029,74,122L74,122z"/>
</g>
</svg>
