<?xml version="1.0" encoding="UTF-8"?>
<svg viewBox="0 0 474 482" version="1.1" xmlns="http://www.w3.org/2000/svg" xmlns:xlink="http://www.w3.org/1999/xlink">
    <!-- Generator: Sketch 52.6 (67491) - http://www.bohemiancoding.com/sketch -->
    <title>img</title>
    <desc>Created with Sketch.</desc>
    <g id="img" stroke="none" stroke-width="1" fill="none" fill-rule="evenodd">
        <g id="Group" transform="translate(7.000000, 0.000000)">
            <g id="Group-2" transform="translate(168.500000, 240.500000) scale(-1, 1) translate(-168.500000, -240.500000) ">
                <g id="Head/Front/Short-Beard" transform="translate(159.500000, 58.500000) scale(-1, 1) translate(-159.500000, -58.500000) translate(83.000000, 0.000000)">
                    <g id="Head" stroke-width="1" transform="translate(60.750000, 34.875000)" fill="#B28B67">
                        <path d="M9.29505812,38.8013926 C4.11115989,32.7165479 0.602589143,25.2594868 1.18887338,16.9036356 C2.8781215,-7.17189815 36.392097,-1.87558746 42.9112591,10.2756745 C49.4304211,22.4269365 48.6557752,53.2496203 40.2303391,55.4213898 C36.8702868,56.2874884 29.7123763,54.1658936 22.4272935,49.7748443 L27,82.125 L0,82.125 L9.29505812,38.8013926 Z"/>
                    </g>
                    <path d="M84.5272186,54.4375452 C85.560738,68.8343687 88.2946703,76.0327804 92.7290154,76.0327804 C99.3809226,76.0327804 105.024593,71.8099249 107.94329,71.8099249 C110.070922,71.8099249 109.595887,74.4724581 108.185582,76.4465373 C107.022034,78.0752161 101.355657,79.6450678 101.355657,82.1700669 C101.355657,84.695066 105.832565,82.7416134 105.832565,84.239141 C105.832565,86.7162344 106.619375,91.3736131 102.320127,91.3736131 C97.9691448,91.3736131 85.4941078,89.7880317 83.3562243,83.3304061 C81.9764969,79.1628435 81.0844039,70.5268741 80.6799455,57.4224979 C80.4160009,57.3911338 80.1473846,57.375 79.875,57.375 C76.1470779,57.375 73.125,60.3970779 73.125,64.125 C73.125,66.0174955 73.9038283,67.728086 75.1584544,68.9537407 C73.5965959,71.1582932 71.8462006,73.4612435 69.8404345,75.837589 C62.305206,71.3167584 56.713638,58.0825927 64.0805469,45.3693131 C66.1167837,39.1412751 70.7265389,35.8146459 76.1707708,34.2699852 C80.5808792,32.4252229 85.158989,32.2172243 89.0235657,33.3231427 C96.5992062,33.9729342 103.36389,36.2829524 105.281056,37.6548153 C105.281056,44.8269426 103.891354,46.9548917 92.0214063,46.7673209 C89.1047678,48.3076532 86.8626032,50.9601034 84.5272186,54.4375452 Z" id="Hair" fill="#191847"/>
                </g>
                <g id="Bottom/Standing/Skinny-Jeans-Walk" transform="translate(168.500000, 346.500000) scale(-1, 1) translate(-168.500000, -346.500000) translate(0.000000, 212.000000)">
                    <polygon id="Leg" fill="#2026A2" points="143.786667 0 197.798375 143.196814 235.656606 248.740586 257.243333 248.740586 205.203443 1.1046301e-13"/>
                    <path d="M130.437679,0 C129.850569,49.1337941 130.275025,115.284473 128.907073,118.347224 C127.995104,120.389057 99.6294134,143.653096 43.81,188.13934 L54.9365945,207.096234 C121.207083,164.276608 156.036392,140.014319 159.424519,134.309367 C164.506711,125.75194 190.039243,47.0053717 203.323333,0 L130.437679,0 Z" id="Leg" fill="#1F28CF"/>
                    <g id="Accessories/Shoe/Flat-Pointy" transform="translate(63.468333, 212.723849) rotate(50.000000) translate(-63.468333, -212.723849) translate(29.206667, 190.213389)" fill="#191847">
                        <path d="M0,45 L1.13114754,21.375 L24.8852459,21.375 C36.1487644,29.25 50.8536824,35.625 69,40.5 L69,45 L26.0163934,45 L11.3114754,42.75 L11.3114754,45 L0,45 Z" id="Shoe"/>
                    </g>
                    <g id="Accessories/Shoe/Flat-Pointy" transform="translate(233.653333, 223.979079)" fill="#191847">
                        <path d="M0,45 L1.13114754,21.375 L24.8852459,21.375 C36.1487644,29.25 50.8536824,35.625 69,40.5 L69,45 L26.0163934,45 L11.3114754,42.75 L11.3114754,45 L0,45 Z" id="Shoe"/>
                    </g>
                </g>
                <g id="Body/Jacket-2" transform="translate(167.000000, 198.000000) scale(-1, 1) rotate(8.000000) translate(-167.000000, -198.000000) translate(23.000000, 93.000000)">
                    <g id="Group" stroke-width="1" transform="translate(43.212964, 209.714733) rotate(-2.000000) translate(-43.212964, -209.714733) translate(-13.599536, 179.393878)">
                        <rect id="Rectangle" fill="#191847" fill-rule="nonzero" x="0" y="8.98395722" width="90" height="51.657754" rx="11"/>
                        <path d="M88.2850304,20.2139037 L88.2850304,48.1532838 C88.2850304,54.228416 83.3601627,59.1532838 77.2850304,59.1532838 L15.75,59.1532838 C41.5222424,57.9460212 58.5575366,55.1149664 66.8558827,50.6601196 C75.1542288,46.2052727 82.297278,36.0565341 88.2850304,20.2139037 Z" id="Rectangle" fill="#363545" fill-rule="nonzero"/>
                        <polygon id="Path" stroke="#191847" fill="#0D0C38" fill-rule="nonzero" points="87.75 26.9518717 99.7759669 26.9518717 99.7759669 46.7481166 87.75 46.7481166"/>
                        <polygon id="Path-2" stroke="#191847" fill="#0D0C38" fill-rule="nonzero" points="100.125 29.1160097 108.370116 24.7058824 113.593494 24.7058824 113.593494 49.1683401 108.370116 49.1683401 100.125 45.3207611"/>
                        <path d="M23.625,9.22108624 L23.625,9 C23.625,4.02943725 27.6544373,-3.46140592e-14 32.625,-3.55271368e-14 L57.9181378,-3.55271368e-14 C62.8887005,-3.64402144e-14 66.9181378,4.02943725 66.9181378,9 L66.9181378,9.22108624 L62.9692423,9.22108624 L62.9692423,9.22108624 C62.9692423,6.67475359 60.9050318,4.61054312 58.3586992,4.61054312 L32.3528109,4.61054312 C29.8064783,4.61054312 27.7422678,6.67475359 27.7422678,9.22108624 L23.625,9.22108624 Z" id="Path-3" fill="#1B1A73" fill-rule="nonzero"/>
                    </g>
                    <path d="M222.75,87.1635743 L263.513888,69.2934573 C270.654771,62.1903456 277.550311,56.7916522 284.200508,53.0973772 C286.189043,52.4654223 289.586363,52.2745012 285.961689,57.55928 C282.337014,62.8440587 278.762501,68.5655774 280.210826,70.4177125 C281.65915,72.2698476 285.854631,70.2255948 287.512138,73.2375297 C288.617142,75.2454864 281.545072,77.647422 266.295928,80.4433365 L235.766183,103.808825 L222.75,87.1635743 Z M57.9468182,92.0855615 L81,96.6514832 C57.8160927,139.780333 45.3829796,162.638649 43.7006609,165.22643 C39.9154437,171.048938 39.2486242,174.059746 40.5532136,179.679144 C39.8212618,179.463382 37.1792462,179.679144 34.7139651,179.679144 C26.9864281,179.679144 35.3342896,186.479905 31.1282533,188.941287 C30.1248105,189.528504 22.8940365,189.48066 20.8969564,189.48066 C20.433103,189.48066 16.7380753,181.277771 20.433103,179.679144 C29.6387645,175.696383 30.1863621,162.360598 32.3916988,159.465241 C35.3990695,155.516904 42.3122335,133.220292 57.9468182,92.0855615 Z" id="Skin" fill="#B28B67"/>
                    <path d="M138.699103,11.1009622 L148.244932,8.59385809 C171.141043,27.1863079 184.050881,75.5372929 198.686457,80.8064074 C212.523802,85.7881419 230.85684,78.1919615 252.564486,68.2017004 L260.766595,82.907717 C242.328655,106.678717 200.575636,129.051627 182.064663,119.984238 C152.469464,105.487368 140.68112,45.4919651 138.699103,11.1009622 Z" id="Coat-Back" fill="#DB2721" transform="translate(199.732849, 65.320149) rotate(5.000000) translate(-199.732849, -65.320149) "/>
                    <path d="M101.25,128.02139 C140.255725,128.02139 168.947519,128.02139 187.325382,128.02139 C191.258588,128.02139 190.51745,122.352106 189.948882,119.491354 C183.386911,86.4748178 157.771467,50.8845896 157.771467,3.88638162 L132.943275,0 C112.407171,32.9693339 105.30543,73.5612593 101.25,128.02139 Z" id="Shirt" fill="#DDE3E9"/>
                    <path d="M92.6648489,94.5933991 C75.1178037,126.188475 60.3685627,148.935416 48.4171258,162.834225 L30.375,159.306696 C41.9969168,87.3585089 75.6524368,34.2562768 131.34156,5.51070117e-14 L131.625,4.53297966e-14 L141.172198,0 C163.461288,75.8436311 169.605996,126.378391 159.606321,151.604278 L82.125,151.604278 C83.3508317,133.146121 87.2813208,113.625945 92.6648506,94.5933952 Z" id="Coat-Front" fill="#FF4133"/>
                </g>
            </g>
            <g id="Head" transform="translate(323.321372, 132.001853) rotate(-4.000000) translate(-323.321372, -132.001853) translate(278.821372, 90.001853)">
                <g transform="translate(47.000000, 11.000000)" fill="#B28B67">
                    <path d="M8.26227388,34.4901268 C3.65436435,29.0813759 0.535634794,22.4528771 1.05677633,15.0254539 C2.55833022,-6.37502057 32.3485306,-1.66718886 38.1433414,9.13393292 C43.9381521,19.9350547 43.249578,47.3329958 35.7603014,49.2634576 C32.7735882,50.033323 26.4110012,48.1474609 19.935372,44.244306 L24,73 L0,73 L8.26227388,34.4901268 Z"/>
                </g>
                <path d="M63.5687217,43.9853286 C60.5926236,49.6979779 56.4765087,54 52.3643383,54 C44.5536227,54 39,43.5572795 39,32.3295687 C39,31.9350856 39.0078163,31.5432268 39.0232386,31.1542949 C30.7608945,36.8241057 24.3932077,48 13.4607455,48 C-1.41277084,48 -7.31966425,18 13.4607455,18 C27.593003,18 34.5445762,20.0604811 40.5354741,23.1074469 C41.7170741,19.7763359 43.5188193,16.9756887 45.7219959,15.0199012 C46.2520171,14.4232542 47.0645989,13.8524026 48.1129199,13.3231942 C48.7538221,12.972543 49.4170423,12.6869516 50.098675,12.4720339 C53.7117049,11.1442871 58.9449543,10.2077896 64.790603,10.003655 C65.8821722,9.9655366 66.9542211,9.95438214 68.0000488,9.96843377 C68.0170696,4.46010293 72.4876784,0 78,0 C83.5228475,0 88,4.4771525 88,10 C88,15.3410915 83.8126832,19.7041827 78.5417481,19.9855753 C75.5265081,20.9159529 71.6524637,21.5990548 67.3561881,21.8871153 C67.7733127,23.4557543 68,25.2377873 68,27.2515622 C68,29.0297049 67.8037398,30.9155223 67.4423579,32.830311 C66.5105469,31.7227516 65.2646032,31 64,31 C60.4624339,31 58,33.9101491 58,37 C58,40.9215044 60.2638886,43.7584261 63.5687217,43.9853286 Z" id="hair" fill="#191847"/>
            </g>
            <g id="Bottom" transform="translate(144.000000, 242.000000)">
                <polygon id="Leg" fill="#997659" points="131 0 205.306413 124.226909 261.014844 229.25029 273.013946 229.25029 179.673688 5.090379e-13"/>
                <g id="Accessories/Shoe/Flat-Simple" transform="translate(251.000000, 199.000000)" fill="#191847">
                    <path d="M0,37 L0.99242267,21 C6.8029179,22.6994251 14.0806841,22.0327584 22.8257214,19 C32.2287535,25.660617 44.0659431,30.2086712 58.3372903,32.6441626 L58.3372863,32.6441862 C59.4261013,32.829999 60.1581292,33.8632891 59.9723163,34.9521041 C59.9602834,35.0226139 59.9444765,35.0924273 59.9249637,35.1612435 L58.5529375,40 L22.8257214,40 L1.98484534,40 L0,37 Z" id="Shoe"/>
                </g>
                <path d="M245.543057,212.432889 L268.683113,205.432889 C258.544824,175.124875 246.118911,141.772016 231.405374,105.374313 C216.691837,68.97661 200.890046,33.851839 184,0 L118.644073,0 C137.422172,42.821022 157.329475,81.7294172 178.365982,116.725186 C199.402489,151.720954 221.794847,183.623522 245.543057,212.432889 Z" id="Pant" fill="#191847"/>
                <path d="M126.116628,0 C119.103498,43.6541888 105.577091,99.4274685 104.300563,101.148648 C103.449544,102.296102 72.8126514,112.562199 12.3898843,131.94694 L14.9818352,142.527938 C87.0358431,132.131776 125.00216,124.066006 128.880787,118.330628 C134.698727,109.72756 163.748486,41.763137 175,0 L126.116628,0 Z" id="Leg" fill="#B28B67"/>
                <path d="M33.6295078,122.800477 L38.1949469,139.841939 C92.0871466,144.568621 125.108088,141.153296 137.25777,129.595966 C149.407453,118.038636 163.254504,74.839981 178.798925,0 L116.478146,0 C106.629567,61.2838742 101.12357,93.2121259 99.9601559,95.7847551 C98.7967416,98.3573843 76.6865256,107.362625 33.6295078,122.800477 Z" id="Pant" fill="#191847"/>
                <g id="Accessories/Shoe/Flat-Simple" transform="translate(25.500000, 154.000000) rotate(80.000000) translate(-25.500000, -154.000000) translate(-5.000000, 134.000000)" fill="#191847">
                    <path d="M0,37 L0.99242267,21 C6.8029179,22.6994251 14.0806841,22.0327584 22.8257214,19 C32.2287535,25.660617 44.0659431,30.2086712 58.3372903,32.6441626 L58.3372863,32.6441862 C59.4261013,32.829999 60.1581292,33.8632891 59.9723163,34.9521041 C59.9602834,35.0226139 59.9444765,35.0924273 59.9249637,35.1612435 L58.5529375,40 L22.8257214,40 L1.98484534,40 L0,37 Z" id="Shoe"/>
                </g>
            </g>
            <g id="noun_Microphone_1839229" opacity="0.9" transform="translate(424.000000, 194.000000)" fill="#000000" fill-rule="nonzero">
                <path d="M38.0513093,1.76437817 C38.0501043,1.76319764 38.0488993,1.76201711 38.0482968,1.76142685 C32.8101583,-1.63671668 25.7621086,-0.0105423803 20.9125829,5.71146619 C17.7904258,9.3947067 16.4733599,12.5160169 16.8854702,15.2542465 C17.1879254,17.2617307 18.3423162,18.800546 19.8485672,20.1227349 L18.4790838,22.4094134 L13.6548631,19.28102 C13.3885579,19.1086633 13.0626052,19.0460954 12.749305,19.1086633 C12.4360048,19.1712311 12.1612646,19.3530321 11.9847319,19.6139283 L4.81136217,30.2333482 C4.44443943,30.7769803 4.59626953,31.5094966 5.1511724,31.8689667 L10.6706786,35.4477307 L1.31384735,51.0708092 C1.31384735,51.0713994 1.31324485,51.0725799 1.31324485,51.0731702 C0.293211666,52.6037219 -0.176136146,54.1879875 0.0600440112,55.3224728 C0.214284114,56.063843 0.625189387,56.4664023 0.9445146,56.6735846 C0.9451171,56.6741749 0.946322101,56.6753554 0.946924602,56.6759457 C0.947527102,56.6765359 0.948129602,56.6771262 0.948732103,56.6777165 C0.949937104,56.6783067 0.951142104,56.678897 0.952347105,56.6794872 C1.19756477,56.838268 1.57051252,57 2.07119035,57 C2.22482795,57 2.39051556,56.9852434 2.56825318,56.9492374 C3.72565645,56.7196251 5.03127482,55.6772208 6.07119051,54.1596549 C6.07179301,54.1590647 6.07299801,54.1584744 6.07360051,54.1572939 L17.0957429,39.613216 L22.616454,43.1925702 C22.8146767,43.3212475 23.0466393,43.3885375 23.2816145,43.3885375 C23.361747,43.3885375 23.4424821,43.3802738 23.5214096,43.364927 C23.8353123,43.3029494 24.1100525,43.1205581 24.2865851,42.8596619 L31.4593524,32.2408323 C31.8262752,31.6972002 31.6738426,30.9646839 31.1195422,30.6052138 L26.2953215,27.4768204 L27.9088176,25.3471519 C29.2017834,25.9415466 30.5260793,26.337613 31.8991777,26.337613 C32.4709506,26.337613 33.0511585,26.2691425 33.6404039,26.1186255 C36.3745507,25.4209347 38.7929873,23.0132524 41.0336863,18.7580471 C44.5131261,12.1494637 43.2870378,5.16252169 38.0513093,1.76437817 Z M22.9418042,40.5729834 L7.48586145,30.5514999 L13.3289103,21.9011971 L28.7848531,31.9232709 L22.9418042,40.5729834 Z" id="Shape"/>
            </g>
            <g id="Body" transform="translate(352.269593, 236.504225) rotate(21.000000) translate(-352.269593, -236.504225) translate(266.269593, 164.004225)">
                <path d="M71.2654879,46.4541595 L105.97527,27.4437487 C111.747294,20.5894491 117.434345,15.2661251 123.036424,11.4737767 C124.748239,10.759122 127.74177,10.3265619 124.94225,15.2954338 C122.14273,20.2643058 119.421523,25.6167183 120.847768,27.1475202 C122.274014,28.6783221 125.830484,26.5398593 127.531973,29.0832997 C128.666299,30.7789266 122.590351,33.4575398 109.304127,37.1191393 L84.0832407,60.211569 L71.2654879,46.4541595 Z M136,58.7398397 L151.246523,50.3642065 C153.385826,42.2239107 155.943102,38.1282526 158.918351,38.0772323 C161.203961,37.0137608 157.223587,47.2997848 161.556381,46.4077826 C165.889175,45.5157805 166.872587,37.3048161 168.694731,38.9017269 C171.390476,41.2642535 171.994048,51.2717745 169.161928,54.8804131 C163.868699,61.6249542 166.070569,61.5240612 155.238377,64.5443446 C149.574749,66.1235046 143.451364,69.288795 136.868224,74.0402157 L136,58.7398397 Z" id="Skin" fill="#997659"/>
                <path d="M49.5565636,43.6404697 C61.5845747,45.4154834 77.998866,45.4154834 96.8021423,37.276317 L101.142024,53.3024745 C87.5043859,63.131723 69.411291,70.1166831 54.9862714,67.4148635 C43.6185608,65.2856807 39.9703019,50.5497122 49.5565636,43.6404697 Z" id="Sleeve" fill="#C1DEE2" transform="translate(72.596859, 52.638227) rotate(-9.000000) translate(-72.596859, -52.638227) "/>
                <path d="M81.1042673,62.7612342 C94.0110574,65.9801048 115.654946,62.184167 146.035933,51.3734208 C153.571674,66.9635189 157.055257,78.0780631 156.486685,84.7170535 C130.424274,98.3310492 108.086537,104.400834 89.6832267,104.801533 C90.268059,115.72137 88.9389181,126.111847 84.4739328,135.605966 C75.2946804,155.124265 21.5450578,137.048144 3.47278757,140.605966 C-7.84459943,103.85132 14.0379108,88.9143806 14.0555178,65.3966157 C14.0747993,39.6421572 34.7544101,-1.27897692e-13 37.7970006,-1.27897692e-13 L65.5437498,1.29377604e-13 C67.0747005,19.6690193 74.7804005,41.3459827 81.1042673,62.7612342 Z" id="Clothes" fill="#89C5CC"/>
            </g>
            <path d="M462.671396,211.30305 C460.762675,214.927855 458.845518,216.942422 456.812682,217.461854 C455.213646,217.869135 453.567012,217.327274 451.863141,216.415317 C451.852899,216.410595 451.843259,216.402922 451.832414,216.3982 C450.862388,215.876407 449.873685,215.236562 448.863894,214.581961 C448.863292,214.581961 448.862689,214.581371 448.862087,214.58078 C446.067087,212.768673 443.427533,211.056911 443.04856,208.536488 C442.741888,206.500671 443.885433,203.985561 446.545473,200.847724 C450.58343,196.083712 456.321042,194.649373 460.497574,197.358089 C460.498177,197.358089 460.498779,197.358089 460.498779,197.35868 C464.67471,200.067396 465.568218,205.80121 462.671396,211.30305 Z" id="Path"/>
            <path d="M443.04856,208.536488 C442.741888,206.500671 443.885433,203.985561 446.545473,200.847724 C450.58343,196.083712 456.321042,194.649373 460.497574,197.358089 C464.67471,200.067396 443.427533,211.056911 443.04856,208.536488 Z" id="Path" fill="#474343"/>
        </g>
    </g>
</svg>