<?xml version="1.0" encoding="utf-8"?>
<!-- Generator: Adobe Illustrator 15.1.0, SVG Export Plug-In . SVG Version: 6.00 Build 0)  -->
<!DOCTYPE svg PUBLIC "-//W3C//DTD SVG 1.1//EN" "http://www.w3.org/Graphics/SVG/1.1/DTD/svg11.dtd">
<svg version="1.1" id="Layer_1" xmlns="http://www.w3.org/2000/svg" xmlns:xlink="http://www.w3.org/1999/xlink" x="0px" y="0px"
	 width="1024px" height="768px" viewBox="0 0 1024 768" enable-background="new 0 0 1024 768" xml:space="preserve">
<image display="none" overflow="visible" width="1600" height="900" xlink:href="BB063C33.jpg"  transform="matrix(1 0 0 1 -309.2769 -12.0947)">
</image>
<rect x="85" fill="#EDEDED" width="239" height="139"/>
<rect x="665" fill="#EDEDED" width="239" height="185"/>
<rect x="345" fill="#EDEDED" width="260" height="8"/>
<rect x="345" y="26" fill="#EDEDED" width="260" height="8"/>
<rect x="345" y="52" fill="#EDEDED" width="260" height="8"/>
<rect x="345" y="77" fill="#EDEDED" width="260" height="8"/>
<rect x="345" y="103" fill="#EDEDED" width="260" height="8"/>
<rect x="345" y="128" fill="#EDEDED" width="260" height="8"/>
<rect x="85" y="231" fill="#EDEDED" width="260" height="8"/>
<rect x="85" y="257" fill="#EDEDED" width="260" height="8"/>
<rect x="85" y="283" fill="#EDEDED" width="260" height="8"/>
<rect x="85" y="308" fill="#EDEDED" width="260" height="8"/>
<rect x="157" y="402" fill="#EDEDED" width="188" height="4"/>
<rect x="157" y="417" fill="#EDEDED" width="188" height="4"/>
<rect x="157" y="431" fill="#EDEDED" width="188" height="5"/>
<rect x="157" y="445" fill="#EDEDED" width="188" height="5"/>
<rect x="371" y="231" fill="#EDEDED" width="260" height="8"/>
<rect x="371" y="257" fill="#EDEDED" width="260" height="8"/>
<rect x="371" y="283" fill="#EDEDED" width="260" height="8"/>
<rect x="371" y="308" fill="#EDEDED" width="260" height="8"/>
<rect x="85" y="399" fill="#EDEDED" width="59" height="51"/>
<rect x="443" y="402" fill="#EDEDED" width="188" height="4"/>
<rect x="443" y="417" fill="#EDEDED" width="188" height="4"/>
<rect x="443" y="431" fill="#EDEDED" width="188" height="5"/>
<rect x="443" y="445" fill="#EDEDED" width="188" height="5"/>
<rect x="371" y="399" fill="#EDEDED" width="59" height="51"/>
<rect x="157" y="495" fill="#EDEDED" width="188" height="4"/>
<rect x="157" y="510" fill="#EDEDED" width="188" height="4"/>
<rect x="157" y="524" fill="#EDEDED" width="188" height="5"/>
<rect x="157" y="538" fill="#EDEDED" width="188" height="5"/>
<rect x="85" y="492" fill="#EDEDED" width="59" height="51"/>
<rect x="443" y="495" fill="#EDEDED" width="188" height="4"/>
<rect x="443" y="510" fill="#EDEDED" width="188" height="4"/>
<rect x="443" y="524" fill="#EDEDED" width="188" height="5"/>
<rect x="443" y="538" fill="#EDEDED" width="188" height="5"/>
<rect x="371" y="492" fill="#EDEDED" width="59" height="51"/>
<rect x="157" y="577" fill="#EDEDED" width="188" height="4"/>
<rect x="157" y="592" fill="#EDEDED" width="188" height="4"/>
<rect x="157" y="606" fill="#EDEDED" width="188" height="5"/>
<rect x="157" y="620" fill="#EDEDED" width="188" height="5"/>
<rect x="85" y="574" fill="#EDEDED" width="59" height="51"/>
<rect x="443" y="577" fill="#EDEDED" width="188" height="4"/>
<rect x="443" y="592" fill="#EDEDED" width="188" height="4"/>
<rect x="443" y="606" fill="#EDEDED" width="188" height="5"/>
<rect x="443" y="620" fill="#EDEDED" width="188" height="5"/>
<rect x="371" y="574" fill="#EDEDED" width="59" height="51"/>
<rect x="157" y="662" fill="#EDEDED" width="188" height="4"/>
<rect x="157" y="677" fill="#EDEDED" width="188" height="4"/>
<rect x="157" y="691" fill="#EDEDED" width="188" height="5"/>
<rect x="157" y="705" fill="#EDEDED" width="188" height="5"/>
<rect x="85" y="659" fill="#EDEDED" width="59" height="51"/>
<rect x="443" y="662" fill="#EDEDED" width="188" height="4"/>
<rect x="443" y="677" fill="#EDEDED" width="188" height="4"/>
<rect x="443" y="691" fill="#EDEDED" width="188" height="5"/>
<rect x="443" y="705" fill="#EDEDED" width="188" height="5"/>
<rect x="371" y="659" fill="#EDEDED" width="59" height="51"/>
<rect x="700" y="270" fill="#EDEDED" width="188" height="4"/>
<rect x="700" y="285" fill="#EDEDED" width="188" height="4"/>
<rect x="700" y="299" fill="#EDEDED" width="188" height="5"/>
<rect x="665" y="269" fill="#EDEDED" width="23" height="20"/>
<rect x="700" y="350" fill="#EDEDED" width="188" height="4"/>
<rect x="700" y="365" fill="#EDEDED" width="188" height="4"/>
<rect x="700" y="379" fill="#EDEDED" width="188" height="5"/>
<rect x="665" y="349" fill="#EDEDED" width="23" height="20"/>
<rect x="700" y="420" fill="#EDEDED" width="188" height="4"/>
<rect x="700" y="435" fill="#EDEDED" width="188" height="4"/>
<rect x="700" y="449" fill="#EDEDED" width="188" height="5"/>
<rect x="665" y="419" fill="#EDEDED" width="23" height="20"/>
<rect x="700" y="501" fill="#EDEDED" width="188" height="4"/>
<rect x="700" y="516" fill="#EDEDED" width="188" height="4"/>
<rect x="700" y="530" fill="#EDEDED" width="188" height="5"/>
<rect x="665" y="500" fill="#EDEDED" width="23" height="20"/>
<rect x="700" y="572" fill="#EDEDED" width="188" height="4"/>
<rect x="700" y="587" fill="#EDEDED" width="188" height="4"/>
<rect x="700" y="601" fill="#EDEDED" width="188" height="5"/>
<rect x="665" y="571" fill="#EDEDED" width="23" height="20"/>
</svg>
